<?xml version="1.0" encoding="UTF-8" standalone="no"?>
<!-- Created with Inkscape (http://www.inkscape.org/) -->

<svg width="50mm" height="53.732544mm" viewBox="0 0 50 53.732544" version="1.1" id="svg5" xml:space="preserve"
  inkscape:version="1.2.2 (b0a8486, 2022-12-01)" sodipodi:docname="daumen--solid.svg"
  xmlns:inkscape="http://www.inkscape.org/namespaces/inkscape"
  xmlns:sodipodi="http://sodipodi.sourceforge.net/DTD/sodipodi-0.dtd" xmlns="http://www.w3.org/2000/svg"
  xmlns:svg="http://www.w3.org/2000/svg">
  <sodipodi:namedview id="namedview7" pagecolor="#ffffff" bordercolor="#666666" borderopacity="1.0"
    inkscape:showpageshadow="2" inkscape:pageopacity="0.0" inkscape:pagecheckerboard="0" inkscape:deskcolor="#d1d1d1"
    inkscape:document-units="mm" showgrid="false" inkscape:zoom="1.5026137" inkscape:cx="106.81388"
    inkscape:cy="117.46199" inkscape:window-width="1366" inkscape:window-height="715" inkscape:window-x="0"
    inkscape:window-y="25" inkscape:window-maximized="0" inkscape:current-layer="layer1" />
  <defs id="defs2">
    <marker id="DistanceX" orient="auto" refX="0" refY="0" style="overflow:visible">
      <path d="M 3,-3 -3,3 M 0,-5 V 5" style="stroke:#000000;stroke-width:0.5" id="path274" />
    </marker>
    <pattern id="Hatch" patternUnits="userSpaceOnUse" width="8" height="8" x="0" y="0">
      <path d="M8 4 l-4,4" stroke="#000000" stroke-width="0.25" linecap="square" id="path277" />
      <path d="M6 2 l-4,4" stroke="#000000" stroke-width="0.25" linecap="square" id="path279" />
      <path d="M4 0 l-4,4" stroke="#000000" stroke-width="0.25" linecap="square" id="path281" />
    </pattern>
    <symbol id="*Model_Space" />
    <symbol id="*Paper_Space" />
    <symbol id="*Paper_Space0" />
  </defs>
  <g inkscape:label="Layer 1" inkscape:groupmode="layer" id="layer1" transform="translate(-38.246097,-73.487113)">
    <path id="path291" style="color:#000000;fill:#f8f9fa;stroke-linejoin:round;-inkscape-stroke:none"
      d="M 83.75133 73.439054 C 83.066272 73.421015 82.506472 73.537614 81.697192 73.627156 C 80.259729 73.78305 79.035173 74.569114 77.84368 74.982629 A 0.88958897 0.88958897 0 0 0 77.841613 74.982629 C 76.987808 75.280858 76.264545 75.840336 75.646398 76.376859 C 75.028251 76.913383 74.506503 77.455984 74.277489 77.662052 C 73.412084 78.435334 72.884557 79.664503 72.609374 80.214868 C 72.399925 80.635575 72.213506 81.217714 71.993908 81.884533 C 71.77431 82.551352 71.551104 83.255894 71.406347 83.673571 A 0.88958897 0.88958897 0 0 0 71.406347 83.675638 C 71.182545 84.32394 69.922284 86.709538 69.419905 87.412361 A 0.88958897 0.88958897 0 0 0 69.419905 87.413912 C 69.187059 87.74045 68.315165 88.778626 67.548701 89.66597 C 66.813374 90.517267 66.203262 91.207538 66.150337 91.267423 C 64.794227 92.459726 63.371952 92.375587 62.755712 92.295267 A 0.88958897 0.88958897 0 0 0 62.752095 92.295267 C 61.442449 92.130534 60.483338 91.602007 59.23448 90.906205 L 59.232413 90.904138 C 58.13917 90.290468 57.614151 89.49554 56.080151 88.748197 C 54.388184 87.916275 52.525612 88.164878 51.492317 88.365275 C 50.216701 88.612667 48.954005 89.496803 47.882718 90.601314 C 47.130501 91.37724 47.038182 92.416812 47.09982 93.293139 C 47.139677 93.859773 47.247212 94.392313 47.349417 94.843949 C 47.329378 94.847551 47.310273 94.85019 47.288956 94.854801 L 47.288956 94.855318 A 0.88958897 0.88958897 0 0 0 47.269319 94.859452 C 47.333769 94.843982 46.981121 94.872497 46.570137 94.959187 C 46.160275 95.045637 45.637836 95.232528 45.119062 95.619095 C 44.457119 96.104234 43.815227 96.807189 43.4649 97.661865 C 43.161398 98.396788 42.986221 99.249788 43.122802 100.12321 A 0.88958897 0.88958897 0 0 0 43.122802 100.12528 C 43.196747 100.59396 43.312961 101.0193 43.463866 101.39549 C 43.26049 101.40719 43.078878 101.41864 42.958988 101.42959 A 0.88958897 0.88958897 0 0 0 42.880956 101.44148 C 42.308992 101.54587 41.912863 101.66996 41.490343 102.08795 C 41.264075 102.31256 41.147911 102.49262 40.949291 102.79075 C 40.75067 103.08887 40.547168 103.36658 40.431493 103.82635 A 0.88958897 0.88958897 0 0 0 40.429426 103.82996 C 40.320319 104.27099 40.126456 104.86903 40.283182 105.61125 C 40.381278 106.07764 40.549117 106.62528 40.842838 107.13467 C 40.815722 107.14178 40.790212 107.14866 40.761706 107.15638 C 40.539618 107.21648 40.339697 107.25113 40.033068 107.41424 A 0.88958897 0.88958897 0 0 0 40.013431 107.42406 C 39.908096 107.48356 39.691359 107.6024 39.464627 107.75582 C 39.237895 107.90923 38.993536 108.06206 38.761828 108.41986 A 0.88958897 0.88958897 0 0 0 38.759761 108.42193 C 38.675571 108.55294 38.185556 109.20055 38.197004 110.15826 C 38.205204 110.82938 38.325538 111.27259 38.521532 111.68943 C 38.744483 112.16709 39.014996 112.61616 39.595885 113.20148 C 39.858464 113.46805 40.352114 113.95579 40.96066 114.38488 C 41.443823 114.72827 42.129208 115.11176 42.849434 115.28715 C 42.93549 115.30813 43.049498 115.33638 43.174995 115.36621 C 43.618658 116.73565 44.555505 117.93148 45.537125 118.91018 C 46.661503 120.03121 47.817455 120.84714 48.68577 121.2227 C 49.623642 121.62972 50.926009 121.76291 52.119152 121.87692 C 53.312295 121.99094 54.331937 122.02937 54.331937 122.02937 A 0.88958897 0.88958897 0 0 0 54.43529 122.0273 C 54.796676 121.9993 55.984193 121.99265 57.138484 122.07795 C 58.291956 122.16315 59.532671 122.41955 59.798787 122.56267 C 59.798976 122.56277 59.800654 122.56257 59.800854 122.56267 C 63.385026 124.51594 65.201041 127.24817 65.201041 127.24817 L 66.683638 126.26374 C 66.683638 126.26374 64.630718 123.16655 60.648347 120.99791 A 0.88958897 0.88958897 0 0 0 60.64473 120.99584 C 59.720632 120.4968 58.50971 120.39601 57.269742 120.30441 C 56.070727 120.21584 54.963696 120.20957 54.363459 120.25015 C 54.260987 120.24598 53.360831 120.20785 52.289167 120.10546 C 51.152757 119.99687 49.792027 119.76214 49.394771 119.58973 A 0.88958897 0.88958897 0 0 0 49.392703 119.58973 C 48.91884 119.38492 47.772914 118.62745 46.792862 117.65031 C 46.189392 117.04863 45.639557 116.35536 45.254972 115.6649 C 45.904888 115.66926 46.302211 115.75571 47.11739 115.65818 C 47.537618 115.60868 48.282208 115.47728 48.882657 115.25769 C 49.079565 115.18579 49.3456 115.09984 49.597859 115.00964 C 49.850119 114.91944 50.034085 114.89773 50.365254 114.64274 A 0.88958897 0.88958897 0 0 0 50.367321 114.64067 C 50.441001 114.58367 50.98889 114.25233 51.289229 113.61335 L 51.289229 113.61128 C 51.499157 113.1642 51.587823 112.53251 51.431855 112.04083 A 0.88958897 0.88958897 0 0 0 51.431855 112.04032 A 0.88958897 0.88958897 0 0 0 51.431855 112.0398 A 0.88958897 0.88958897 0 0 0 51.431855 112.03928 A 0.88958897 0.88958897 0 0 0 51.431855 112.03877 A 0.88958897 0.88958897 0 0 0 51.431855 112.03825 A 0.88958897 0.88958897 0 0 0 51.431855 112.03773 A 0.88958897 0.88958897 0 0 0 51.431855 112.03721 C 51.408698 111.96541 51.381871 111.89628 51.353307 111.82948 C 51.688423 111.82385 52.000635 111.80788 52.275215 111.7623 C 52.581454 111.7114 52.889989 111.62026 53.175935 111.522 C 53.461022 111.424 53.621753 111.40882 53.956766 111.1644 L 53.958833 111.16233 C 54.319339 110.89937 54.625604 110.66336 54.904512 110.05129 C 55.167401 109.48506 55.174485 109.02046 55.201134 108.75008 L 55.201134 108.74853 C 55.252564 108.24678 55.125314 108.10555 55.029569 107.86331 C 54.933619 107.62056 54.819588 107.39116 54.685404 107.18015 A 0.88958897 0.88958897 0 0 0 54.681786 107.17188 C 54.672981 107.15828 54.663792 107.14581 54.654915 107.1326 C 54.983184 107.12988 55.279783 107.11612 55.576305 107.05664 C 55.929041 106.98574 56.287099 106.85044 56.679597 106.68354 C 56.875847 106.60014 57.066412 106.51082 57.243904 106.4143 C 57.421395 106.3178 57.57025 106.25699 57.783406 106.02363 A 0.88958897 0.88958897 0 0 0 57.783406 106.02311 A 0.88958897 0.88958897 0 0 0 57.783406 106.02259 A 0.88958897 0.88958897 0 0 0 57.783406 106.02208 A 0.88958897 0.88958897 0 0 0 57.783406 106.02156 C 57.823216 105.97786 58.470145 105.52291 58.878946 104.63095 A 0.88958897 0.88958897 0 0 0 58.878946 104.63043 A 0.88958897 0.88958897 0 0 0 58.878946 104.62991 A 0.88958897 0.88958897 0 0 0 58.878946 104.6294 A 0.88958897 0.88958897 0 0 0 58.878946 104.62888 C 59.025858 104.30651 59.151269 104.11285 59.249983 103.76744 C 59.348693 103.42202 59.336253 103.04147 59.267553 102.629 A 0.88958897 0.88958897 0 0 0 59.267553 102.62849 A 0.88958897 0.88958897 0 0 0 59.267553 102.62797 A 0.88958897 0.88958897 0 0 0 59.267553 102.62745 A 0.88958897 0.88958897 0 0 0 59.267553 102.62694 C 59.259626 102.57959 59.25348 102.54633 59.245849 102.50188 C 60.192096 102.27126 61.105424 101.66689 61.8984 100.87511 A 0.88958897 0.88958897 0 0 0 61.8984 100.87459 A 0.88958897 0.88958897 0 0 0 61.8984 100.87407 A 0.88958897 0.88958897 0 0 0 61.8984 100.87356 A 0.88958897 0.88958897 0 0 0 61.8984 100.87304 C 62.962293 99.808909 63.195479 98.371606 63.195479 97.103759 C 63.195479 95.710121 62.480568 94.825713 61.945426 94.359224 C 61.453785 93.930663 60.913077 93.8654 60.521223 93.84556 C 60.129371 93.82572 59.810672 93.8807 59.810672 93.8807 A 0.88958897 0.88958897 0 0 0 59.650475 93.923592 L 58.525479 94.340104 L 56.456872 92.34746 L 55.224389 93.629036 L 57.693489 96.007702 A 0.88958897 0.88958897 0 0 0 58.619014 96.200972 L 60.15432 95.633048 C 60.18782 95.628448 60.272302 95.61519 60.431823 95.62323 C 60.619432 95.63273 60.781154 95.702344 60.777538 95.699194 C 61.218428 96.083522 61.416259 96.176206 61.416259 97.103243 C 61.416259 98.153136 61.222226 99.033476 60.640596 99.615234 C 59.940365 100.31441 58.926363 100.79194 58.545116 100.8224 A 0.88958897 0.88958897 0 0 0 58.531164 100.8224 C 58.3994 100.8351 57.626821 100.77293 56.933845 100.63843 C 56.24087 100.50396 55.502858 100.28872 55.316373 100.20331 C 55.016777 100.06279 54.02262 99.547078 53.068448 99.005969 C 52.590223 98.734768 52.115427 98.453232 51.730545 98.207051 C 51.345663 97.96087 51.031385 97.718727 50.98072 97.668066 A 0.88958897 0.88958897 0 0 0 50.978653 97.665999 C 50.35851 97.049049 49.391278 95.813412 49.236124 95.11525 C 49.10638 94.531426 48.919994 93.809106 48.874906 93.168082 C 48.829816 92.527059 48.936814 92.070383 49.160159 91.839998 C 50.040954 90.931887 51.216494 90.23076 51.831831 90.111421 C 52.689491 89.945087 54.24394 89.827867 55.296736 90.345516 A 0.88958897 0.88958897 0 0 0 55.298803 90.345516 C 56.504023 90.932079 56.957602 91.668919 58.363215 92.457015 A 0.88958897 0.88958897 0 0 0 58.365282 92.459082 C 59.616424 93.156165 60.854669 93.847682 62.531436 94.058467 C 63.377249 94.168337 65.479087 94.248819 67.34768 92.589823 A 0.88958897 0.88958897 0 0 0 67.423644 92.515409 C 67.423644 92.515409 68.121947 91.726861 68.896423 90.83024 C 69.670899 89.93362 70.492965 88.975385 70.869429 88.44744 L 70.867362 88.44744 C 71.585246 87.443128 72.700086 85.380587 73.087898 84.258032 L 73.087898 84.255965 C 73.249661 83.789094 73.469235 83.092402 73.683727 82.441088 C 73.898168 81.789928 74.136975 81.138682 74.201008 81.009651 L 74.201008 81.007584 C 74.476071 80.457708 75.170524 79.24891 75.462947 78.988069 A 0.88958897 0.88958897 0 0 0 75.466564 78.984452 C 75.816295 78.669762 76.271477 78.190233 76.812735 77.720446 C 77.353536 77.251057 77.969173 76.821887 78.425557 76.662113 C 79.854127 76.16632 81.074906 75.484671 81.890461 75.396557 A 0.88958897 0.88958897 0 0 0 81.892528 75.396557 C 83.064408 75.266896 83.406312 75.141064 84.2128 75.265299 C 85.124471 75.41382 85.552857 75.52567 86.058682 75.861128 C 86.272069 76.002995 86.283053 76.043124 86.320165 76.124678 C 86.357275 76.206228 86.397683 76.39545 86.492248 76.714823 L 86.490181 76.712756 C 86.476461 76.666016 86.508554 77.090956 86.452974 77.452762 C 86.397394 77.814569 86.254945 78.236318 86.273656 78.19897 A 0.88958897 0.88958897 0 0 0 86.273656 78.201037 C 86.162655 78.424203 85.433686 79.593151 85.021536 80.027282 A 0.88958897 0.88958897 0 0 0 85.021536 80.029349 C 84.605612 80.468217 82.607558 82.156164 81.88271 82.591984 A 0.88958897 0.88958897 0 0 0 81.88271 82.593534 C 80.922865 83.171243 79.371262 84.202032 78.556815 84.910188 C 77.81307 85.556098 76.076846 87.129222 75.384915 88.027311 C 75.124703 88.362844 74.607617 89.033985 74.113158 89.685607 C 73.618052 90.338084 73.178769 90.914157 72.957157 91.26949 A 0.88958897 0.88958897 0 0 0 72.95509 91.273624 C 72.618825 91.817742 71.610517 93.553844 71.138663 94.566446 C 70.641461 95.629327 70.284447 97.029399 70.322175 98.23444 C 70.356725 99.373663 70.664741 100.64235 71.074067 101.53708 C 71.413076 102.28102 71.981281 103.56097 72.423856 104.2227 C 72.432356 104.2354 72.597337 104.62614 72.69309 105.02731 C 72.78884 105.42848 72.861579 105.87896 72.886877 106.15644 A 0.88958897 0.88958897 0 0 0 72.886877 106.15799 C 72.917497 106.48736 72.647696 108.28498 72.593871 108.44519 A 0.88958897 0.88958897 0 0 0 72.591804 108.44932 C 72.520064 108.66764 71.691805 110.44658 71.515384 110.74014 C 71.293855 111.10599 70.583312 112.10907 70.234325 112.61909 C 70.142415 112.75113 69.725327 113.24287 69.370812 113.63867 C 69.015172 114.03573 68.699019 114.37506 68.699019 114.37506 L 70.001781 115.5879 C 70.001781 115.5879 70.326292 115.23815 70.695279 114.82619 C 71.064267 114.41424 71.45425 113.98124 71.699352 113.6273 A 0.88958897 0.88958897 0 0 0 71.700903 113.62316 C 71.703502 113.61937 71.709107 113.61152 71.711755 113.60766 C 71.892215 114.10663 72.23028 115.01628 72.607307 115.668 C 72.805291 116.01077 73.136444 116.51262 73.447049 116.98058 C 73.757653 117.44853 74.093141 117.96552 74.0682 117.92213 C 74.227584 118.20121 74.292548 118.23074 74.437686 118.39858 C 74.583197 118.56684 74.759096 118.76143 74.929646 118.94945 C 75.270748 119.32549 75.593688 119.67189 75.593688 119.67189 L 76.894384 118.45904 C 76.894384 118.45904 76.576369 118.11856 76.245845 117.75418 C 76.080582 117.57198 75.912432 117.38358 75.783341 117.23431 C 75.65425 117.08503 75.513691 116.86218 75.613325 117.03691 A 0.88958897 0.88958897 0 0 0 75.611258 117.03536 C 75.464078 116.77926 75.236469 116.45841 74.929646 115.99615 C 74.622824 115.5339 74.282508 115.01304 74.146231 114.7771 C 73.896433 114.34531 73.477538 113.26198 73.328193 112.8475 L 73.328193 112.84543 C 73.229514 112.57074 73.072584 112.13966 72.948888 111.80002 C 72.97703 111.75544 73.014335 111.70044 73.038805 111.65998 A 0.88958897 0.88958897 0 0 0 73.040872 111.65843 C 73.413763 111.03794 74.047956 109.7185 74.281107 109.01156 L 74.281107 109.00949 C 74.534439 108.25466 74.75131 106.99874 74.658345 105.99417 C 74.622525 105.60126 74.540951 105.10602 74.423734 104.61493 C 74.306518 104.12384 74.199606 103.67618 73.904386 103.23413 C 73.736124 102.98254 73.021158 101.51984 72.69154 100.79656 C 72.430437 100.22582 72.126105 98.994383 72.101395 98.179663 C 72.077995 97.432227 72.391435 96.08678 72.749934 95.320406 A 0.88958897 0.88958897 0 0 0 72.749934 95.319889 A 0.88958897 0.88958897 0 0 0 72.749934 95.319372 A 0.88958897 0.88958897 0 0 0 72.749934 95.318855 A 0.88958897 0.88958897 0 0 0 72.749934 95.318339 C 73.13011 94.50199 74.194745 92.651161 74.466625 92.211035 L 74.468692 92.208968 C 74.552852 92.074378 75.041499 91.402018 75.529093 90.759444 C 76.017427 90.115892 76.535345 89.447458 76.793098 89.1151 A 0.88958897 0.88958897 0 0 0 76.795165 89.113033 C 77.138488 88.667418 79.066479 86.825414 79.724702 86.253776 C 80.312238 85.742918 81.932912 84.639439 82.801 84.116955 C 83.905978 83.452581 85.630052 81.971498 86.312414 81.251497 C 87.000458 80.526757 87.611469 79.502501 87.865291 78.992203 C 88.06605 78.59011 88.138982 78.204825 88.213073 77.722513 C 88.287373 77.238822 88.364092 76.78003 88.19757 76.212528 A 0.88958897 0.88958897 0 0 0 88.19757 76.212011 A 0.88958897 0.88958897 0 0 0 88.19757 76.211495 A 0.88958897 0.88958897 0 0 0 88.19757 76.210978 A 0.88958897 0.88958897 0 0 0 88.19757 76.210461 C 88.13838 76.010542 88.100527 75.741678 87.939705 75.388289 C 87.778887 75.034899 87.471671 74.662073 87.045186 74.378531 A 0.88958897 0.88958897 0 0 0 87.043118 74.378531 C 86.267925 73.863925 85.476461 73.668726 84.498054 73.509334 A 0.88958897 0.88958897 0 0 0 84.49237 73.507267 L 84.49237 73.507784 C 84.222349 73.465889 83.979682 73.445067 83.75133 73.439054 z M 47.580928 96.611283 C 47.590073 96.611697 47.600305 96.612684 47.611417 96.6149 C 47.678987 96.62841 47.786976 96.656995 47.89047 96.690865 C 47.916612 96.69942 47.94038 96.708031 47.9654 96.716703 C 48.469845 97.653848 49.210322 98.416441 49.724466 98.927937 C 50.008646 99.211615 50.345625 99.432794 50.771431 99.705151 C 51.19813 99.978079 51.69518 100.27118 52.191499 100.55264 C 53.18414 101.11557 54.144491 101.61778 54.568098 101.81613 A 0.88958897 0.88958897 0 0 0 54.574299 101.82027 C 55.108391 102.06491 55.824081 102.2348 56.595881 102.38457 C 56.890134 102.44167 57.171005 102.49032 57.444925 102.5303 C 57.465902 102.64613 57.488358 102.77089 57.513655 102.92201 C 57.564315 103.22708 57.552573 103.23874 57.541043 103.27909 C 57.529453 103.31969 57.4339 103.50866 57.259923 103.89043 C 57.027146 104.39671 56.868186 104.38437 56.468757 104.82215 C 56.571369 104.7098 56.498403 104.79501 56.394343 104.85161 C 56.29028 104.90821 56.139832 104.98003 55.982482 105.04694 C 55.667782 105.18075 55.273239 105.30274 55.224389 105.31256 C 55.247509 105.30756 54.686769 105.35428 54.213081 105.35338 C 53.739393 105.35251 53.196092 105.31793 53.138728 105.30843 A 0.88958897 0.88958897 0 0 0 53.066381 105.29861 C 53.080081 105.29961 52.356106 105.16089 51.757934 105.01335 C 51.159762 104.86581 50.516222 104.68926 50.420031 104.65782 A 0.88958897 0.88958897 0 0 0 50.410212 104.65369 C 50.301207 104.61929 48.811337 103.9421 48.61704 103.83772 A 0.88958897 0.88958897 0 0 0 48.614973 103.83565 C 48.663173 103.86135 48.500784 103.76144 48.341605 103.64393 C 48.182426 103.52642 47.985668 103.37521 47.787117 103.22225 C 47.390013 102.91631 47.066692 102.64821 46.775292 102.46416 A 0.88958897 0.88958897 0 0 0 46.775292 102.46364 A 0.88958897 0.88958897 0 0 0 46.775292 102.46312 A 0.88958897 0.88958897 0 0 0 46.775292 102.46261 C 46.925719 102.55741 46.714712 102.41247 46.56807 102.28639 C 46.421428 102.1603 46.234912 101.99458 46.050789 101.82957 C 45.866665 101.66456 45.682918 101.49959 45.544876 101.37068 C 45.475856 101.30628 45.417311 101.25018 45.378995 101.21255 C 45.37233 101.20601 45.365916 101.1982 45.359358 101.19085 C 45.260567 101.03715 44.970206 100.41253 44.880834 99.849328 L 44.880834 99.847261 C 44.871834 99.783981 45.031281 98.527956 45.109244 98.339343 A 0.88958897 0.88958897 0 0 0 45.111311 98.337276 C 45.268337 97.954187 45.794292 97.328099 46.173778 97.050533 A 0.88958897 0.88958897 0 0 0 46.179463 97.046398 C 46.473929 96.826349 46.713923 96.745785 46.937556 96.698616 C 47.136427 96.656668 47.28989 96.670003 47.580928 96.611283 z M 44.816239 103.11373 C 44.83217 103.12807 44.847272 103.14177 44.863264 103.1561 C 45.054587 103.32756 45.247842 103.49653 45.408451 103.63463 C 45.56906 103.77272 45.590571 103.82068 45.825996 103.96897 C 45.824896 103.96829 46.298542 104.32059 46.701395 104.63095 C 46.902821 104.78613 47.106185 104.94207 47.285339 105.07433 C 47.464493 105.20659 47.578446 105.30009 47.777298 105.40609 C 48.184684 105.62487 49.222472 106.14585 49.874845 106.35177 C 50.16156 106.44507 50.714379 106.58802 51.33212 106.74038 C 51.511832 106.78471 51.679337 106.82594 51.841133 106.86544 L 52.605427 107.49434 C 52.628367 107.51694 52.718145 107.6089 52.851407 107.75014 C 53.000221 107.90787 53.181791 108.12704 53.189371 108.13874 C 53.236271 108.21354 53.321195 108.37962 53.374889 108.51547 C 53.400136 108.57933 53.406943 108.65679 53.410546 108.6953 C 53.369766 108.90741 53.285491 109.27717 53.288073 109.30405 C 53.269073 109.29976 53.015503 109.5896 52.935123 109.69059 C 52.874194 109.71841 52.726882 109.79607 52.597676 109.84045 C 52.38199 109.91455 52.119258 109.98598 51.984277 110.0084 C 51.900857 110.0223 51.438811 110.05204 51.039115 110.05284 C 50.639419 110.05371 50.133286 109.98993 50.259834 110.02183 C 49.935158 109.94033 49.475874 109.87758 48.925548 109.78154 C 48.650386 109.73354 48.376298 109.68299 48.158153 109.63891 C 47.94223 109.59531 47.743805 109.5364 47.796935 109.55726 C 47.390438 109.39869 46.273204 108.98934 45.825996 108.76816 L 45.822379 108.7661 C 45.12898 108.41915 44.218646 108.10356 43.775475 107.76977 A 0.88958897 0.88958897 0 0 0 43.773408 107.76771 C 43.271612 107.39121 42.677589 106.67519 42.482531 106.40242 C 42.413031 106.30372 42.066986 105.45248 42.023644 105.24641 A 0.88958897 0.88958897 0 0 0 42.023644 105.2459 A 0.88958897 0.88958897 0 0 0 42.023644 105.24538 A 0.88958897 0.88958897 0 0 0 42.023644 105.24486 A 0.88958897 0.88958897 0 0 0 42.023644 105.24435 C 42.019965 105.22685 42.066106 104.63542 42.154902 104.2687 C 42.158096 104.28213 42.286878 103.99234 42.429821 103.77777 C 42.527732 103.63081 42.656322 103.47178 42.718692 103.39226 C 42.758718 103.38934 42.996429 103.24843 43.173962 103.20158 C 43.448952 103.1796 44.374131 103.13488 44.816239 103.11373 z M 53.431733 108.56663 A 0.88958897 0.88958897 0 0 0 53.431733 108.57024 C 53.431557 108.57202 53.430927 108.57603 53.4307 108.57799 C 53.431293 108.57223 53.431092 108.57281 53.431733 108.56663 z M 42.19366 108.76041 C 42.353761 108.90875 42.524626 109.05423 42.705256 109.18984 C 43.546701 109.8236 44.598977 110.14216 45.029146 110.35773 A 0.88958897 0.88958897 0 0 0 45.031213 110.3598 C 45.709925 110.69638 46.835787 111.0923 47.150463 111.21504 A 0.88958897 0.88958897 0 0 0 47.15408 111.21711 C 47.393857 111.30951 47.559531 111.33307 47.806754 111.38299 C 48.053975 111.43289 48.339436 111.48421 48.621174 111.53337 C 48.655127 111.53929 48.684975 111.54491 48.71936 111.55094 C 48.903277 111.71463 49.174812 111.9541 49.402522 112.1385 A 0.88958897 0.88958897 0 0 0 49.413891 112.14884 C 49.6717 112.35053 49.632089 112.25879 49.736352 112.5824 C 49.797902 112.77262 49.819518 112.55833 49.679508 112.85577 A 0.88958897 0.88958897 0 0 0 49.677441 112.85784 C 49.599391 113.02436 49.563747 113.01294 49.277465 113.23456 C 49.42033 113.1241 49.210492 113.25829 48.997896 113.33429 C 48.783505 113.41099 48.516601 113.49696 48.271325 113.58647 C 47.98933 113.6896 47.110554 113.867 46.908101 113.89085 A 0.88958897 0.88958897 0 0 0 46.906034 113.89085 C 46.269227 113.96695 46.02622 113.88516 45.206912 113.88516 C 44.816445 113.88516 43.666656 113.65539 43.269563 113.55857 C 43.147395 113.52887 42.127555 113.03161 41.990055 112.9338 A 0.88958897 0.88958897 0 0 0 41.986437 112.93173 C 41.533943 112.61268 41.098946 112.19097 40.862992 111.95143 A 0.88958897 0.88958897 0 0 0 40.861441 111.94936 C 40.366732 111.45131 40.331459 111.36142 40.132804 110.93547 A 0.88958897 0.88958897 0 0 0 40.130736 110.93392 C 39.954279 110.55863 39.981793 110.72257 39.974674 110.13656 C 39.967974 109.57464 39.98033 109.80946 40.253726 109.38673 C 40.202516 109.46583 40.317964 109.32852 40.462499 109.23067 C 40.600418 109.13737 40.754907 109.0493 40.869193 108.98469 C 40.783183 109.03039 41.041999 108.923 41.226277 108.87307 C 41.375024 108.83277 41.459812 108.81575 41.505846 108.80485 L 42.19366 108.76041 z M 53.291173 109.30301 A 0.88958897 0.88958897 0 0 0 53.287039 109.31283 C 53.289071 109.30836 53.289083 109.30641 53.28859 109.30508 C 53.289092 109.30566 53.289754 109.30604 53.291173 109.30301 z M 52.908768 109.72624 C 52.90853 109.72727 52.908395 109.72816 52.910318 109.72676 A 0.88958897 0.88958897 0 0 0 52.908251 109.72676 L 52.908768 109.72624 z " />
  </g>
</svg>