<?xml version="1.0" standalone="no"?>
<!DOCTYPE svg PUBLIC "-//W3C//DTD SVG 20010904//EN"
 "http://www.w3.org/TR/2001/REC-SVG-20010904/DTD/svg10.dtd">
<svg version="1.0" xmlns="http://www.w3.org/2000/svg"
 width="283.000000pt" height="283.000000pt" viewBox="0 0 283.000000 283.000000"
 preserveAspectRatio="xMidYMid meet">
<metadata>
Created by potrace 1.14, written by Peter Selinger 2001-2017
</metadata>
<g transform="translate(0.000000,283.000000) scale(0.100000,-0.100000)"
fill="#000000" stroke="none">
<path d="M2390 2777 c-3 -3 -24 -7 -48 -11 -51 -7 -222 -76 -260 -106 -115
-89 -179 -180 -222 -315 -51 -160 -131 -289 -274 -443 -47 -50 -109 -82 -160
-82 -84 0 -142 27 -327 151 -75 50 -107 58 -207 56 -103 -3 -157 -25 -232 -98
-61 -59 -72 -99 -56 -199 6 -36 4 -40 -14 -40 -51 0 -124 -50 -163 -110 -27
-42 -38 -114 -27 -166 6 -26 9 -48 8 -50 -2 -2 -19 -6 -37 -9 -45 -8 -45 -8
-81 -60 -37 -54 -48 -124 -30 -181 14 -42 14 -49 3 -49 -21 0 -85 -51 -99 -78
-21 -39 -20 -107 1 -151 25 -53 103 -125 170 -157 46 -22 64 -38 80 -68 72
-138 224 -258 350 -275 28 -4 64 -9 80 -12 17 -2 91 -6 165 -8 74 -3 157 -10
184 -16 79 -18 209 -113 292 -213 l30 -37 60 41 c76 53 387 282 394 289 3 3
20 16 38 29 18 13 47 36 65 52 l31 29 -22 27 c-59 73 -132 194 -153 254 l-23
65 40 80 c38 77 39 82 39 184 l0 105 -51 105 c-92 186 -93 258 -8 420 104 196
252 359 444 489 229 156 309 254 312 383 2 105 -74 167 -215 176 -40 2 -74 2
-77 -1z"/>
</g>
</svg>
